<svg width="49" height="48" viewBox="0 0 49 48" fill="none" xmlns="http://www.w3.org/2000/svg">
<path d="M4 12.8571L26.5 7L49 12.8571V48H4V12.8571Z" fill="#F8A71E"/>
<path d="M0 6.28571L22.5 0L45 6.28571V44H0V6.28571Z" fill="#FFDDA5"/>
<path d="M29.9584 20.7031C29.8864 20.5421 29.7339 20.44 29.5666 20.44H24.7048L26.5109 14.6035C26.5551 14.4637 26.5326 14.3101 26.4511 14.1904C26.3687 14.0709 26.2388 14 26.1001 14H20.9004C20.714 14 20.5485 14.127 20.4887 14.3147L17.0222 25.3547C16.978 25.4945 17.0005 25.6491 17.0829 25.7687C17.1635 25.8892 17.2943 25.96 17.4339 25.96H20.2989L17.0222 36.3947C16.9564 36.6044 17.0413 36.8353 17.2241 36.9421C17.29 36.9807 17.3619 37 17.4339 37C17.5595 37 17.6834 36.9411 17.7684 36.8317L29.9011 21.1917C30.0077 21.0555 30.0302 20.8651 29.9584 20.7031Z" fill="url(#paint0_linear_101_2)"/>
<defs>
<linearGradient id="paint0_linear_101_2" x1="22.3426" y1="13.2537" x2="22.3426" y2="35.1037" gradientUnits="userSpaceOnUse">
<stop stop-color="#F8A71E"/>
<stop offset="1" stop-color="#FF5F39"/>
</linearGradient>
</defs>
</svg>
