<svg width="13" height="23" viewBox="0 0 13 23" fill="none" xmlns="http://www.w3.org/2000/svg">
<path d="M12.9584 6.70313C12.8864 6.54213 12.7339 6.44002 12.5666 6.44002H7.70485L9.51089 0.603548C9.55506 0.463706 9.53255 0.310073 9.45109 0.190446C9.36875 0.0708645 9.23875 2.26727e-05 9.10013 2.26727e-05H3.90036C3.71405 2.26727e-05 3.54851 0.126972 3.48872 0.314655L0.0222069 11.3547C-0.0219707 11.4945 0.000541169 11.6491 0.0828877 11.7687C0.163499 11.8892 0.29434 11.96 0.433855 11.96H3.29893L0.0222069 22.3947C-0.0436364 22.6044 0.0412915 22.8353 0.224138 22.9421C0.289981 22.9807 0.361918 23 0.433855 23C0.559533 23 0.683433 22.9411 0.768361 22.8317L12.9011 7.19166C13.0077 7.0555 13.0302 6.86507 12.9584 6.70313Z" fill="url(#paint0_linear_2_58)"/>
<defs>
<linearGradient id="paint0_linear_2_58" x1="5.34264" y1="-0.746336" x2="5.34264" y2="21.1037" gradientUnits="userSpaceOnUse">
<stop stop-color="#F8A71E"/>
<stop offset="1" stop-color="#FF5F39"/>
</linearGradient>
</defs>
</svg>
